%TF.GenerationSoftware,KiCad,Pcbnew,8.0.4*%
%TF.CreationDate,2024-08-11T17:04:56+02:00*%
%TF.ProjectId,SDCreset,53444372-6573-4657-942e-6b696361645f,rev?*%
%TF.SameCoordinates,Original*%
%TF.FileFunction,Copper,L1,Top*%
%TF.FilePolarity,Positive*%
%FSLAX46Y46*%
G04 Gerber Fmt 4.6, Leading zero omitted, Abs format (unit mm)*
G04 Created by KiCad (PCBNEW 8.0.4) date 2024-08-11 17:04:56*
%MOMM*%
%LPD*%
G01*
G04 APERTURE LIST*
G04 Aperture macros list*
%AMRoundRect*
0 Rectangle with rounded corners*
0 $1 Rounding radius*
0 $2 $3 $4 $5 $6 $7 $8 $9 X,Y pos of 4 corners*
0 Add a 4 corners polygon primitive as box body*
4,1,4,$2,$3,$4,$5,$6,$7,$8,$9,$2,$3,0*
0 Add four circle primitives for the rounded corners*
1,1,$1+$1,$2,$3*
1,1,$1+$1,$4,$5*
1,1,$1+$1,$6,$7*
1,1,$1+$1,$8,$9*
0 Add four rect primitives between the rounded corners*
20,1,$1+$1,$2,$3,$4,$5,0*
20,1,$1+$1,$4,$5,$6,$7,0*
20,1,$1+$1,$6,$7,$8,$9,0*
20,1,$1+$1,$8,$9,$2,$3,0*%
G04 Aperture macros list end*
%TA.AperFunction,SMDPad,CuDef*%
%ADD10RoundRect,0.150000X-0.587500X-0.150000X0.587500X-0.150000X0.587500X0.150000X-0.587500X0.150000X0*%
%TD*%
%TA.AperFunction,SMDPad,CuDef*%
%ADD11R,1.600000X1.600000*%
%TD*%
%TA.AperFunction,SMDPad,CuDef*%
%ADD12RoundRect,0.250000X-0.262500X-0.450000X0.262500X-0.450000X0.262500X0.450000X-0.262500X0.450000X0*%
%TD*%
%TA.AperFunction,SMDPad,CuDef*%
%ADD13RoundRect,0.250000X0.262500X0.450000X-0.262500X0.450000X-0.262500X-0.450000X0.262500X-0.450000X0*%
%TD*%
%TA.AperFunction,SMDPad,CuDef*%
%ADD14R,1.400000X1.600000*%
%TD*%
%TA.AperFunction,ComponentPad*%
%ADD15C,2.000000*%
%TD*%
%TA.AperFunction,ComponentPad*%
%ADD16R,2.000000X2.000000*%
%TD*%
%TA.AperFunction,SMDPad,CuDef*%
%ADD17R,1.270000X2.540000*%
%TD*%
%TA.AperFunction,ViaPad*%
%ADD18C,0.600000*%
%TD*%
%TA.AperFunction,Conductor*%
%ADD19C,0.200000*%
%TD*%
G04 APERTURE END LIST*
D10*
%TO.P,Q1,1,B*%
%TO.N,BMS state*%
X183062500Y-83550000D03*
%TO.P,Q1,2,E*%
%TO.N,Net-(Q2-E)*%
X183062500Y-85450000D03*
%TO.P,Q1,3,C*%
%TO.N,+12V*%
X184937500Y-84500000D03*
%TD*%
D11*
%TO.P,U1,1*%
%TO.N,Net-(U1-Pad1)*%
X160810000Y-81620000D03*
%TO.P,U1,2*%
%TO.N,Net-(R1-Pad1)*%
X160810000Y-79080000D03*
%TO.P,U1,3*%
%TO.N,BMS state*%
X160810000Y-76540000D03*
%TO.P,U1,4*%
%TO.N,Net-(U1-Pad4)*%
X160810000Y-74000000D03*
%TO.P,U1,5*%
%TO.N,Net-(R3-Pad2)*%
X160810000Y-71460000D03*
%TO.P,U1,6*%
%TO.N,IMD state*%
X160810000Y-68920000D03*
%TO.P,U1,7,GND*%
%TO.N,GND*%
X160810000Y-66380000D03*
%TO.P,U1,8*%
%TO.N,N/C*%
X153190000Y-66380000D03*
%TO.P,U1,9*%
X153190000Y-68920000D03*
%TO.P,U1,10*%
X153190000Y-71460000D03*
%TO.P,U1,11*%
X153190000Y-74000000D03*
%TO.P,U1,12*%
X153190000Y-76540000D03*
%TO.P,U1,13*%
X153190000Y-79080000D03*
%TO.P,U1,14,VCC*%
%TO.N,Net-(U1E-VCC)*%
X153190000Y-81620000D03*
%TD*%
D12*
%TO.P,R1,1*%
%TO.N,Net-(U1E-VCC)*%
X156175000Y-59000000D03*
%TO.P,R1,2*%
%TO.N,GND*%
X158000000Y-59000000D03*
%TD*%
D13*
%TO.P,R5,1*%
%TO.N,BMS error*%
X167000000Y-76000000D03*
%TO.P,R5,2*%
%TO.N,Net-(R1-Pad1)*%
X165175000Y-76000000D03*
%TD*%
D14*
%TO.P,SW1,1,1*%
%TO.N,Net-(R7-Pad2)*%
X193000000Y-61000000D03*
X193000000Y-53000000D03*
%TO.P,SW1,2,2*%
%TO.N,Net-(SW1-Pad2)*%
X197500000Y-61000000D03*
X197500000Y-53000000D03*
%TD*%
D15*
%TO.P,K1,11*%
%TO.N,SDC out*%
X159312500Y-109962500D03*
%TO.P,K1,12*%
%TO.N,unconnected-(K1-Pad12)*%
X159312500Y-104962500D03*
%TO.P,K1,14*%
%TO.N,Net-(K1-Pad14)*%
X159312500Y-114962500D03*
%TO.P,K1,21*%
%TO.N,+12V*%
X166812500Y-109962500D03*
%TO.P,K1,22*%
%TO.N,IMD led*%
X166812500Y-104962500D03*
%TO.P,K1,24*%
%TO.N,unconnected-(K1-Pad24)*%
X166812500Y-114962500D03*
D16*
%TO.P,K1,A1*%
%TO.N,Net-(Q1-E)*%
X159312500Y-89962500D03*
D15*
%TO.P,K1,A2*%
%TO.N,GND*%
X166812500Y-89962500D03*
%TD*%
D12*
%TO.P,R3,1*%
%TO.N,+12V*%
X188087500Y-59000000D03*
%TO.P,R3,2*%
%TO.N,Net-(R7-Pad2)*%
X189912500Y-59000000D03*
%TD*%
%TO.P,R6,1*%
%TO.N,Net-(R1-Pad1)*%
X165175000Y-79050000D03*
%TO.P,R6,2*%
%TO.N,GND*%
X167000000Y-79050000D03*
%TD*%
D10*
%TO.P,Q2,1,B*%
%TO.N,IMD state*%
X165062500Y-83550000D03*
%TO.P,Q2,2,E*%
%TO.N,Net-(Q1-E)*%
X165062500Y-85450000D03*
%TO.P,Q2,3,C*%
%TO.N,+12V*%
X166937500Y-84500000D03*
%TD*%
D15*
%TO.P,K2,11*%
%TO.N,SDC in*%
X183000000Y-110000000D03*
%TO.P,K2,12*%
%TO.N,unconnected-(K2-Pad12)*%
X183000000Y-105000000D03*
%TO.P,K2,14*%
%TO.N,Net-(K1-Pad14)*%
X183000000Y-115000000D03*
%TO.P,K2,21*%
%TO.N,+12V*%
X190500000Y-110000000D03*
%TO.P,K2,22*%
%TO.N,BMS led*%
X190500000Y-105000000D03*
%TO.P,K2,24*%
%TO.N,unconnected-(K2-Pad24)*%
X190500000Y-115000000D03*
D16*
%TO.P,K2,A1*%
%TO.N,Net-(Q2-E)*%
X183000000Y-90000000D03*
D15*
%TO.P,K2,A2*%
%TO.N,GND*%
X190500000Y-90000000D03*
%TD*%
D11*
%TO.P,U2,1*%
%TO.N,BMS state*%
X189380000Y-66380000D03*
%TO.P,U2,2*%
%TO.N,Net-(SW1-Pad2)*%
X189380000Y-68920000D03*
%TO.P,U2,3*%
%TO.N,Net-(U1-Pad1)*%
X189380000Y-71460000D03*
%TO.P,U2,4*%
%TO.N,IMD state*%
X189380000Y-74000000D03*
%TO.P,U2,5*%
%TO.N,Net-(SW1-Pad2)*%
X189380000Y-76540000D03*
%TO.P,U2,6*%
%TO.N,Net-(U1-Pad4)*%
X189380000Y-79080000D03*
%TO.P,U2,7,GND*%
%TO.N,GND*%
X189380000Y-81620000D03*
%TO.P,U2,8*%
%TO.N,N/C*%
X197000000Y-81620000D03*
%TO.P,U2,9*%
X197000000Y-79080000D03*
%TO.P,U2,10*%
X197000000Y-76540000D03*
%TO.P,U2,11*%
X197000000Y-74000000D03*
%TO.P,U2,12*%
X197000000Y-71460000D03*
%TO.P,U2,13*%
X197000000Y-68920000D03*
%TO.P,U2,14,VCC*%
%TO.N,Net-(U1E-VCC)*%
X197000000Y-66380000D03*
%TD*%
D13*
%TO.P,R7,1*%
%TO.N,IMD error*%
X167000000Y-68500000D03*
%TO.P,R7,2*%
%TO.N,Net-(R3-Pad2)*%
X165175000Y-68500000D03*
%TD*%
%TO.P,R2,1*%
%TO.N,+12V*%
X158000000Y-56000000D03*
%TO.P,R2,2*%
%TO.N,Net-(U1E-VCC)*%
X156175000Y-56000000D03*
%TD*%
%TO.P,R4,1*%
%TO.N,Net-(R7-Pad2)*%
X189912500Y-61950000D03*
%TO.P,R4,2*%
%TO.N,GND*%
X188087500Y-61950000D03*
%TD*%
D12*
%TO.P,R8,1*%
%TO.N,Net-(R3-Pad2)*%
X165175000Y-71500000D03*
%TO.P,R8,2*%
%TO.N,GND*%
X167000000Y-71500000D03*
%TD*%
D17*
%TO.P,J1,1,Pin_1*%
%TO.N,+12V*%
X164500000Y-56000000D03*
%TO.P,J1,2,Pin_2*%
%TO.N,GND*%
X167500000Y-56000000D03*
%TO.P,J1,3,Pin_3*%
%TO.N,IMD error*%
X170500000Y-56000000D03*
%TO.P,J1,4,Pin_4*%
%TO.N,BMS error*%
X173500000Y-56000000D03*
%TO.P,J1,5,Pin_5*%
%TO.N,SDC out*%
X176500000Y-56000000D03*
%TO.P,J1,6,Pin_6*%
%TO.N,SDC in*%
X179500000Y-56000000D03*
%TO.P,J1,7,Pin_7*%
%TO.N,BMS led*%
X182500000Y-56000000D03*
%TO.P,J1,8,Pin_8*%
%TO.N,IMD led*%
X185500000Y-56000000D03*
%TD*%
D18*
%TO.N,+12V*%
X164000000Y-102000000D03*
X166000000Y-59000000D03*
X186000000Y-82000000D03*
X186100000Y-75000000D03*
X186100000Y-59000000D03*
%TO.N,IMD led*%
X185500000Y-77000000D03*
%TO.N,GND*%
X172000000Y-62000000D03*
X168000000Y-73000000D03*
X186700000Y-62000000D03*
X169000000Y-78000000D03*
X169900000Y-62000000D03*
X193000000Y-84000000D03*
%TO.N,IMD state*%
X167000000Y-67000000D03*
X175000000Y-67000000D03*
X187000000Y-74000000D03*
%TO.N,BMS state*%
X187000000Y-66000000D03*
X172900000Y-66000000D03*
X181000000Y-66000000D03*
%TO.N,Net-(U1E-VCC)*%
X197000000Y-63000000D03*
X163000000Y-63000000D03*
%TO.N,Net-(U1-Pad1)*%
X168000000Y-64000000D03*
X192000000Y-70000000D03*
%TO.N,Net-(U1-Pad4)*%
X167000000Y-74000000D03*
X184000000Y-77000000D03*
%TD*%
D19*
%TO.N,SDC out*%
X176500000Y-56000000D02*
X176500000Y-92775000D01*
X176500000Y-92775000D02*
X159312500Y-109962500D01*
%TO.N,+12V*%
X186000000Y-83437500D02*
X186000000Y-82000000D01*
X184937500Y-104437500D02*
X184937500Y-84500000D01*
X190500000Y-110000000D02*
X187500000Y-113000000D01*
X186100000Y-59000000D02*
X188087500Y-59000000D01*
X166937500Y-84500000D02*
X166937500Y-87062500D01*
X190500000Y-110000000D02*
X184937500Y-104437500D01*
X164000000Y-90000000D02*
X164000000Y-102000000D01*
X186100000Y-60987500D02*
X186100000Y-75000000D01*
X166937500Y-87062500D02*
X164000000Y-90000000D01*
X184937500Y-84500000D02*
X186000000Y-83437500D01*
X164500000Y-57500000D02*
X166000000Y-59000000D01*
X164500000Y-56000000D02*
X158000000Y-56000000D01*
X188087500Y-59000000D02*
X186100000Y-60987500D01*
X187500000Y-113000000D02*
X169850000Y-113000000D01*
X164500000Y-56000000D02*
X164500000Y-57500000D01*
X169850000Y-113000000D02*
X166812500Y-109962500D01*
%TO.N,SDC in*%
X179500000Y-56000000D02*
X179500000Y-106500000D01*
X179500000Y-106500000D02*
X183000000Y-110000000D01*
%TO.N,BMS led*%
X182500000Y-76940000D02*
X193500000Y-87940000D01*
X182500000Y-56000000D02*
X182500000Y-76940000D01*
X193500000Y-102000000D02*
X190500000Y-105000000D01*
X193500000Y-87940000D02*
X193500000Y-102000000D01*
%TO.N,IMD error*%
X170500000Y-65000000D02*
X167000000Y-68500000D01*
X170500000Y-56000000D02*
X170500000Y-65000000D01*
%TO.N,IMD led*%
X185500000Y-77000000D02*
X185500000Y-56000000D01*
%TO.N,BMS error*%
X173500000Y-69500000D02*
X167000000Y-76000000D01*
X173500000Y-56000000D02*
X173500000Y-69500000D01*
%TO.N,GND*%
X167000000Y-79050000D02*
X167950000Y-79050000D01*
X172000000Y-66500000D02*
X172000000Y-62000000D01*
X161000000Y-62000000D02*
X168600000Y-62000000D01*
X168600000Y-64248529D02*
X166468529Y-66380000D01*
X167950000Y-79050000D02*
X169000000Y-78000000D01*
X167000000Y-71500000D02*
X168750000Y-69750000D01*
X168750000Y-72250000D02*
X168000000Y-73000000D01*
X188087500Y-61950000D02*
X186750000Y-61950000D01*
X189380000Y-81620000D02*
X190620000Y-81620000D01*
X168750000Y-69750000D02*
X172000000Y-66500000D01*
X186750000Y-61950000D02*
X186700000Y-62000000D01*
X167500000Y-56000000D02*
X168600000Y-57100000D01*
X158000000Y-59000000D02*
X161000000Y-62000000D01*
X168750000Y-69750000D02*
X168750000Y-72250000D01*
X190620000Y-81620000D02*
X193000000Y-84000000D01*
X168600000Y-62000000D02*
X168600000Y-64248529D01*
X168600000Y-57100000D02*
X168600000Y-62000000D01*
X169900000Y-62000000D02*
X168600000Y-62000000D01*
X166468529Y-66380000D02*
X160810000Y-66380000D01*
%TO.N,Net-(Q1-E)*%
X163825000Y-85450000D02*
X159312500Y-89962500D01*
X165062500Y-85450000D02*
X163825000Y-85450000D01*
%TO.N,Net-(K1-Pad14)*%
X180000000Y-118000000D02*
X183000000Y-115000000D01*
X159312500Y-114962500D02*
X162350000Y-118000000D01*
X162350000Y-118000000D02*
X180000000Y-118000000D01*
%TO.N,Net-(Q2-E)*%
X183062500Y-85450000D02*
X183062500Y-89937500D01*
X183062500Y-89937500D02*
X183000000Y-90000000D01*
%TO.N,IMD state*%
X175000000Y-73612500D02*
X165062500Y-83550000D01*
X187000000Y-74000000D02*
X189380000Y-74000000D01*
X160810000Y-68920000D02*
X162730000Y-67000000D01*
X162730000Y-67000000D02*
X167000000Y-67000000D01*
X175000000Y-67000000D02*
X175000000Y-73612500D01*
%TO.N,BMS state*%
X160810000Y-76540000D02*
X162750000Y-74600000D01*
X187000000Y-66000000D02*
X187380000Y-66380000D01*
X187380000Y-66380000D02*
X189380000Y-66380000D01*
X181000000Y-66000000D02*
X181000000Y-81487500D01*
X162750000Y-74600000D02*
X167834314Y-74600000D01*
X172900000Y-69534314D02*
X172900000Y-66000000D01*
X181000000Y-81487500D02*
X183062500Y-83550000D01*
X167834314Y-74600000D02*
X172900000Y-69534314D01*
%TO.N,Net-(R1-Pad1)*%
X160840000Y-79050000D02*
X160810000Y-79080000D01*
X165175000Y-76000000D02*
X165175000Y-79050000D01*
X165175000Y-79050000D02*
X160840000Y-79050000D01*
%TO.N,Net-(R3-Pad2)*%
X165135000Y-71460000D02*
X165175000Y-71500000D01*
X160810000Y-71460000D02*
X165135000Y-71460000D01*
X165175000Y-68500000D02*
X165175000Y-71500000D01*
%TO.N,Net-(U1E-VCC)*%
X156175000Y-59000000D02*
X160175000Y-63000000D01*
X151000000Y-61500000D02*
X151000000Y-79430000D01*
X156175000Y-59000000D02*
X153500000Y-59000000D01*
X151000000Y-79430000D02*
X153190000Y-81620000D01*
X197000000Y-63000000D02*
X197000000Y-66380000D01*
X160175000Y-63000000D02*
X163000000Y-63000000D01*
X156175000Y-56000000D02*
X156175000Y-59000000D01*
X153500000Y-59000000D02*
X151000000Y-61500000D01*
%TO.N,Net-(R7-Pad2)*%
X189912500Y-56087500D02*
X193000000Y-53000000D01*
X189912500Y-61950000D02*
X190950000Y-61950000D01*
X189912500Y-59000000D02*
X189912500Y-56087500D01*
X190950000Y-61950000D02*
X191900000Y-61000000D01*
X189912500Y-61950000D02*
X189912500Y-59000000D01*
X191900000Y-61000000D02*
X193000000Y-61000000D01*
%TO.N,Net-(SW1-Pad2)*%
X189380000Y-68920000D02*
X192080000Y-68920000D01*
X194000000Y-67000000D02*
X194000000Y-71920000D01*
X192080000Y-68920000D02*
X194000000Y-67000000D01*
X194000000Y-64500000D02*
X194000000Y-67000000D01*
X197500000Y-61000000D02*
X194000000Y-64500000D01*
X197500000Y-61000000D02*
X197500000Y-53000000D01*
X194000000Y-71920000D02*
X189380000Y-76540000D01*
%TO.N,Net-(U1-Pad1)*%
X160810000Y-81620000D02*
X158000000Y-78810000D01*
X158000000Y-66000000D02*
X160000000Y-64000000D01*
X190540000Y-71460000D02*
X189380000Y-71460000D01*
X158000000Y-78810000D02*
X158000000Y-78000000D01*
X160000000Y-64000000D02*
X168000000Y-64000000D01*
X192000000Y-70000000D02*
X190540000Y-71460000D01*
X158000000Y-78000000D02*
X158000000Y-66000000D01*
%TO.N,Net-(U1-Pad4)*%
X186080000Y-79080000D02*
X189380000Y-79080000D01*
X160810000Y-74000000D02*
X167000000Y-74000000D01*
X184000000Y-77000000D02*
X186080000Y-79080000D01*
%TD*%
M02*
